  0
SECTION
  2
HEADER
  9
$ACADVER
  1
AC1014
  9
$HANDSEED
  5
FFFF
  9
$MEASUREMENT
 70
     1
  0
ENDSEC
  0
SECTION
  2
TABLES
  0
TABLE
  2
VPORT
  5
8
330
0
100
AcDbSymbolTable
 70
     4
  0
VPORT
  5
2E
330
8
100
AcDbSymbolTableRecord
100
AcDbViewportTableRecord
  2
*ACTIVE
 70
     0
 10
0.0
 20
0.0
 11
1.0
 21
1.0
 12
210.0
 22
148.5
 13
0.0
 23
0.0
 14
10.0
 24
10.0
 15
10.0
 25
10.0
 16
0.0
 26
0.0
 36
1.0
 17
0.0
 27
0.0
 37
0.0
 40
341.0
 41
1.24
 42
50.0
 43
0.0
 44
0.0
 50
0.0
 51
0.0
 71
     0
 72
   100
 73
     1
 74
     3
 75
     0
 76
     0
 77
     0
 78
     0
  0
ENDTAB
  0
TABLE
  2
LTYPE
  5
5
330
0
100
AcDbSymbolTable
 70
     1
  0
LTYPE
  5
14
330
5
100
AcDbSymbolTableRecord
100
AcDbLinetypeTableRecord
  2
BYBLOCK
 70
     0
  3

 72
    65
 73
     0
 40
0.0
  0
LTYPE
  5
15
330
5
100
AcDbSymbolTableRecord
100
AcDbLinetypeTableRecord
  2
BYLAYER
 70
     0
  3

 72
    65
 73
     0
 40
0.0
  0
LTYPE
  5
16
330
5
100
AcDbSymbolTableRecord
100
AcDbLinetypeTableRecord
  2
CONTINUOUS
 70
     0
  3
Solid line
 72
    65
 73
     0
 40
0.0
  0
ENDTAB
  0
TABLE
  2
LAYER
  5
2
100
AcDbSymbolTable
 70
2
  0
LAYER
  5
50
100
AcDbSymbolTableRecord
100
AcDbLayerTableRecord
  2
0
 70
0
  6
CONTINUOUS
  0
LAYER
  5
51
100
AcDbSymbolTableRecord
100
AcDbLayerTableRecord
  2
Layer_1
 70
0
  6
CONTINUOUS
  0
ENDTAB
  0
TABLE
  2
STYLE
  5
3
330
0
100
AcDbSymbolTable
 70
     1
  0
STYLE
  5
11
330
3
100
AcDbSymbolTableRecord
100
AcDbTextStyleTableRecord
  2
STANDARD
 70
     0
 40
0.0
 41
1.0
 50
0.0
 71
     0
 42
2.5
  3
txt
  4

  0
ENDTAB
  0
TABLE
  2
VIEW
  5
6
330
0
100
AcDbSymbolTable
 70
     0
  0
ENDTAB
  0
TABLE
  2
UCS
  5
7
330
0
100
AcDbSymbolTable
 70
     0
  0
ENDTAB
  0
TABLE
  2
APPID
  5
9
330
0
100
AcDbSymbolTable
 70
     2
  0
APPID
  5
12
330
9
100
AcDbSymbolTableRecord
100
AcDbRegAppTableRecord
  2
ACAD
 70
     0
  0
ENDTAB
  0
TABLE
  2
DIMSTYLE
  5
A
330
0
100
AcDbSymbolTable
 70
     1
  0
DIMSTYLE
105
27
330
A
100
AcDbSymbolTableRecord
100
AcDbDimStyleTableRecord
  2
ISO-25
 70
     0
  3

  4

  5

  6

  7

 40
1.0
 41
2.5
 42
0.625
 43
3.75
 44
1.25
 45
0.0
 46
0.0
 47
0.0
 48
0.0
140
2.5
141
2.5
142
0.0
143
0.03937007874016
144
1.0
145
0.0
146
1.0
147
0.625
 71
     0
 72
     0
 73
     0
 74
     0
 75
     0
 76
     0
 77
     1
 78
     8
170
     0
171
     3
172
     1
173
     0
174
     0
175
     0
176
     0
177
     0
178
     0
270
     2
271
     2
272
     2
273
     2
274
     3
340
11
275
     0
280
     0
281
     0
282
     0
283
     0
284
     8
285
     0
286
     0
287
     3
288
     0
  0
ENDTAB
  0
TABLE
  2
BLOCK_RECORD
  5
1
330
0
100
AcDbSymbolTable
 70
     1
  0
BLOCK_RECORD
  5
1F
330
1
100
AcDbSymbolTableRecord
100
AcDbBlockTableRecord
  2
*MODEL_SPACE
  0
BLOCK_RECORD
  5
1B
330
1
100
AcDbSymbolTableRecord
100
AcDbBlockTableRecord
  2
*PAPER_SPACE
  0
ENDTAB
  0
ENDSEC
  0
SECTION
  2
BLOCKS
  0
BLOCK
  5
20
330
1F
100
AcDbEntity
  8
0
100
AcDbBlockBegin
  2
*MODEL_SPACE
 70
     0
 10
0.0
 20
0.0
 30
0.0
  3
*MODEL_SPACE
  1

  0
ENDBLK
  5
21
330
1F
100
AcDbEntity
  8
0
100
AcDbBlockEnd
  0
BLOCK
  5
1C
330
1B
100
AcDbEntity
 67
     1
  8
0
100
AcDbBlockBegin
  2
*PAPER_SPACE
  1

  0
ENDBLK
  5
1D
330
1B
100
AcDbEntity
 67
     1
  8
0
100
AcDbBlockEnd
  0
ENDSEC
  0
SECTION
  2
ENTITIES
  0
SPLINE
  5
100
100
AcDbEntity
  8
Layer_1
 62
7
100
AcDbSpline
 70
8
 71
3
 72
8
 73
4
 74
0
 40
0
 40
0
 40
0
 40
0
 40
1
 40
1
 40
1
 40
1
 10
119.434354
 20
903.676755
 30
0.0
 10
119.806828
 20
918.581504
 30
0.0
 10
101.316717
 20
932.236600
 30
0.0
 10
102.138354
 20
943.085815
 30
0.0
  0
SPLINE
  5
101
100
AcDbEntity
  8
Layer_1
 62
7
100
AcDbSpline
 70
8
 71
3
 72
8
 73
4
 74
0
 40
0
 40
0
 40
0
 40
0
 40
1
 40
1
 40
1
 40
1
 10
102.138354
 20
943.085815
 30
0.0
 10
102.578067
 20
946.936511
 30
0.0
 10
108.942141
 20
952.282224
 30
0.0
 10
108.942141
 20
952.282224
 30
0.0
  0
SPLINE
  5
102
100
AcDbEntity
  8
Layer_1
 62
7
100
AcDbSpline
 70
8
 71
3
 72
8
 73
4
 74
0
 40
0
 40
0
 40
0
 40
0
 40
1
 40
1
 40
1
 40
1
 10
108.942141
 20
952.282224
 30
0.0
 10
108.942141
 20
952.282224
 30
0.0
 10
84.365257
 20
961.400936
 30
0.0
 10
84.071401
 20
971.970272
 30
0.0
  0
SPLINE
  5
103
100
AcDbEntity
  8
Layer_1
 62
7
100
AcDbSpline
 70
8
 71
3
 72
8
 73
4
 74
0
 40
0
 40
0
 40
0
 40
0
 40
1
 40
1
 40
1
 40
1
 10
84.071401
 20
971.970272
 30
0.0
 10
83.765354
 20
982.978067
 30
0.0
 10
102.565305
 20
984.801815
 30
0.0
 10
108.794601
 20
993.882626
 30
0.0
  0
SPLINE
  5
104
100
AcDbEntity
  8
Layer_1
 62
7
100
AcDbSpline
 70
8
 71
3
 72
8
 73
4
 74
0
 40
0
 40
0
 40
0
 40
0
 40
1
 40
1
 40
1
 40
1
 10
108.794601
 20
993.882626
 30
0.0
 10
114.006069
 20
1001.479681
 30
0.0
 10
119.511852
 20
1010.897493
 30
0.0
 10
119.511852
 20
1019.779026
 30
0.0
  0
LWPOLYLINE
  5
105
100
AcDbEntity
  8
Layer_1
 62
7
100
AcDbPolyline
 90
2
 70
0
 10
119.434354
 20
820.141094
 30
0.0
 10
119.434354
 20
903.676755
 30
0.0
  0
SPLINE
  5
106
100
AcDbEntity
  8
Layer_1
 62
7
100
AcDbSpline
 70
8
 71
3
 72
8
 73
4
 74
0
 40
0
 40
0
 40
0
 40
0
 40
1
 40
1
 40
1
 40
1
 10
119.511852
 20
1062.643338
 30
0.0
 10
114.335617
 20
1100.661051
 30
0.0
 10
102.976376
 20
1134.406063
 30
0.0
 10
86.751113
 20
1175.497503
 30
0.0
  0
SPLINE
  5
107
100
AcDbEntity
  8
Layer_1
 62
7
100
AcDbSpline
 70
8
 71
3
 72
8
 73
4
 74
0
 40
0
 40
0
 40
0
 40
0
 40
1
 40
1
 40
1
 40
1
 10
86.751113
 20
1175.497503
 30
0.0
 10
72.662142
 20
1211.084370
 30
0.0
 10
37.724521
 20
1272.117110
 30
0.0
 10
54.207292
 20
1315.297061
 30
0.0
  0
SPLINE
  5
108
100
AcDbEntity
  8
Layer_1
 62
7
100
AcDbSpline
 70
8
 71
3
 72
8
 73
4
 74
0
 40
0
 40
0
 40
0
 40
0
 40
1
 40
1
 40
1
 40
1
 10
54.207292
 20
1315.297061
 30
0.0
 10
62.564366
 20
1329.701873
 30
0.0
 10
81.317595
 20
1338.456121
 30
0.0
 10
93.402337
 20
1321.571849
 30
0.0
  0
SPLINE
  5
109
100
AcDbEntity
  8
Layer_1
 62
7
100
AcDbSpline
 70
8
 71
3
 72
8
 73
4
 74
0
 40
0
 40
0
 40
0
 40
0
 40
1
 40
1
 40
1
 40
1
 10
93.402337
 20
1321.571849
 30
0.0
 10
95.053548
 20
1319.397016
 30
0.0
 10
95.482162
 20
1316.328583
 30
0.0
 10
95.304119
 20
1313.603728
 30
0.0
  0
SPLINE
  5
10a
100
AcDbEntity
  8
Layer_1
 62
7
100
AcDbSpline
 70
8
 71
3
 72
8
 73
4
 74
0
 40
0
 40
0
 40
0
 40
0
 40
1
 40
1
 40
1
 40
1
 10
95.304119
 20
1313.603728
 30
0.0
 10
95.072398
 20
1310.057408
 30
0.0
 10
93.861436
 20
1306.299958
 30
0.0
 10
91.500551
 20
1303.643570
 30
0.0
  0
SPLINE
  5
10b
100
AcDbEntity
  8
Layer_1
 62
7
100
AcDbSpline
 70
8
 71
3
 72
8
 73
4
 74
0
 40
0
 40
0
 40
0
 40
0
 40
1
 40
1
 40
1
 40
1
 10
91.500551
 20
1303.643570
 30
0.0
 10
89.599020
 20
1301.504044
 30
0.0
 10
86.745423
 20
1299.903477
 30
0.0
 10
83.893412
 20
1299.659496
 30
0.0
  0
SPLINE
  5
10c
100
AcDbEntity
  8
Layer_1
 62
7
100
AcDbSpline
 70
8
 71
3
 72
8
 73
4
 74
0
 40
0
 40
0
 40
0
 40
0
 40
1
 40
1
 40
1
 40
1
 10
83.893412
 20
1299.659496
 30
0.0
 10
79.579914
 20
1299.290547
 30
0.0
 10
73.225147
 20
1304.208015
 30
0.0
 10
73.225147
 20
1304.208015
 30
0.0
  0
SPLINE
  5
10d
100
AcDbEntity
  8
Layer_1
 62
7
100
AcDbSpline
 70
8
 71
3
 72
8
 73
4
 74
0
 40
0
 40
0
 40
0
 40
0
 40
1
 40
1
 40
1
 40
1
 10
73.225147
 20
1304.208015
 30
0.0
 10
70.891161
 20
1299.044742
 30
0.0
 10
70.435916
 20
1293.009730
 30
0.0
 10
70.876005
 20
1287.275754
 30
0.0
  0
SPLINE
  5
10e
100
AcDbEntity
  8
Layer_1
 62
7
100
AcDbSpline
 70
8
 71
3
 72
8
 73
4
 74
0
 40
0
 40
0
 40
0
 40
0
 40
1
 40
1
 40
1
 40
1
 10
70.876005
 20
1287.275754
 30
0.0
 10
72.126947
 20
1278.406102
 30
0.0
 10
73.948660
 20
1267.924933
 30
0.0
 10
80.979826
 20
1262.375344
 30
0.0
  0
SPLINE
  5
10f
100
AcDbEntity
  8
Layer_1
 62
7
100
AcDbSpline
 70
8
 71
3
 72
8
 73
4
 74
0
 40
0
 40
0
 40
0
 40
0
 40
1
 40
1
 40
1
 40
1
 10
80.979826
 20
1262.375344
 30
0.0
 10
85.714392
 20
1258.638439
 30
0.0
 10
97.739895
 20
1259.653056
 30
0.0
 10
97.739895
 20
1259.653056
 30
0.0
  0
SPLINE
  5
110
100
AcDbEntity
  8
Layer_1
 62
7
100
AcDbSpline
 70
8
 71
3
 72
8
 73
4
 74
0
 40
0
 40
0
 40
0
 40
0
 40
1
 40
1
 40
1
 40
1
 10
97.739895
 20
1259.653056
 30
0.0
 10
97.739895
 20
1259.653056
 30
0.0
 10
90.382590
 20
1249.855063
 30
0.0
 10
90.727655
 20
1245.177342
 30
0.0
  0
SPLINE
  5
111
100
AcDbEntity
  8
Layer_1
 62
7
100
AcDbSpline
 70
8
 71
3
 72
8
 73
4
 74
0
 40
0
 40
0
 40
0
 40
0
 40
1
 40
1
 40
1
 40
1
 10
90.727655
 20
1245.177342
 30
0.0
 10
91.281965
 20
1237.663091
 30
0.0
 10
100.366850
 20
1233.293473
 30
0.0
 10
104.218145
 20
1226.817489
 30
0.0
  0
SPLINE
  5
112
100
AcDbEntity
  8
Layer_1
 62
7
100
AcDbSpline
 70
8
 71
3
 72
8
 73
4
 74
0
 40
0
 40
0
 40
0
 40
0
 40
1
 40
1
 40
1
 40
1
 10
104.218145
 20
1226.817489
 30
0.0
 10
109.809001
 20
1217.416384
 30
0.0
 10
119.434362
 20
1187.773004
 30
0.0
 10
119.434362
 20
1187.773004
 30
0.0
  0
LWPOLYLINE
  5
113
100
AcDbEntity
  8
Layer_1
 62
7
100
AcDbPolyline
 90
2
 70
0
 10
119.511852
 20
1019.779026
 30
0.0
 10
119.511852
 20
1062.643338
 30
0.0
  0
SPLINE
  5
114
100
AcDbEntity
  8
Layer_1
 62
7
100
AcDbSpline
 70
8
 71
3
 72
8
 73
4
 74
0
 40
0
 40
0
 40
0
 40
0
 40
1
 40
1
 40
1
 40
1
 10
119.457476
 20
1311.267746
 30
0.0
 10
119.817005
 20
1317.492073
 30
0.0
 10
118.342140
 20
1323.484129
 30
0.0
 10
117.488276
 20
1329.280802
 30
0.0
  0
SPLINE
  5
115
100
AcDbEntity
  8
Layer_1
 62
7
100
AcDbSpline
 70
8
 71
3
 72
8
 73
4
 74
0
 40
0
 40
0
 40
0
 40
0
 40
1
 40
1
 40
1
 40
1
 10
117.488276
 20
1329.280802
 30
0.0
 10
114.991284
 20
1345.839555
 30
0.0
 10
108.984105
 20
1360.477035
 30
0.0
 10
101.990938
 20
1377.171490
 30
0.0
  0
SPLINE
  5
116
100
AcDbEntity
  8
Layer_1
 62
7
100
AcDbSpline
 70
8
 71
3
 72
8
 73
4
 74
0
 40
0
 40
0
 40
0
 40
0
 40
1
 40
1
 40
1
 40
1
 10
101.990938
 20
1377.171490
 30
0.0
 10
99.565667
 20
1383.048376
 30
0.0
 10
94.416821
 20
1388.892267
 30
0.0
 10
95.594568
 20
1395.139876
 30
0.0
  0
SPLINE
  5
117
100
AcDbEntity
  8
Layer_1
 62
7
100
AcDbSpline
 70
8
 71
3
 72
8
 73
4
 74
0
 40
0
 40
0
 40
0
 40
0
 40
1
 40
1
 40
1
 40
1
 10
95.594568
 20
1395.139876
 30
0.0
 10
96.639468
 20
1400.682749
 30
0.0
 10
110.300624
 20
1407.287031
 30
0.0
 10
106.684028
 20
1407.921156
 30
0.0
  0
SPLINE
  5
118
100
AcDbEntity
  8
Layer_1
 62
7
100
AcDbSpline
 70
8
 71
3
 72
8
 73
4
 74
0
 40
0
 40
0
 40
0
 40
0
 40
1
 40
1
 40
1
 40
1
 10
106.684028
 20
1407.921156
 30
0.0
 10
103.067443
 20
1408.555282
 30
0.0
 10
90.402348
 20
1407.021263
 30
0.0
 10
84.071401
 20
1417.189391
 30
0.0
  0
SPLINE
  5
119
100
AcDbEntity
  8
Layer_1
 62
7
100
AcDbSpline
 70
8
 71
3
 72
8
 73
4
 74
0
 40
0
 40
0
 40
0
 40
0
 40
1
 40
1
 40
1
 40
1
 10
84.071401
 20
1417.189391
 30
0.0
 10
97.660356
 20
1421.063145
 30
0.0
 10
108.662310
 20
1432.495346
 30
0.0
 10
119.434354
 20
1441.110236
 30
0.0
  0
SPLINE
  5
11a
100
AcDbEntity
  8
Layer_1
 62
7
100
AcDbSpline
 70
8
 71
3
 72
8
 73
4
 74
0
 40
0
 40
0
 40
0
 40
0
 40
1
 40
1
 40
1
 40
1
 10
119.434354
 20
1441.110236
 30
0.0
 10
119.434354
 20
1450.539252
 30
0.0
 10
119.434354
 20
1459.968296
 30
0.0
 10
119.434354
 20
1469.397313
 30
0.0
  0
SPLINE
  5
11b
100
AcDbEntity
  8
Layer_1
 62
7
100
AcDbSpline
 70
8
 71
3
 72
8
 73
4
 74
0
 40
0
 40
0
 40
0
 40
0
 40
1
 40
1
 40
1
 40
1
 10
119.434354
 20
1469.397313
 30
0.0
 10
95.274528
 20
1517.885156
 30
0.0
 10
79.820474
 20
1639.966339
 30
0.0
 10
79.820474
 20
1639.966339
 30
0.0
  0
LWPOLYLINE
  5
11c
100
AcDbEntity
  8
Layer_1
 62
7
100
AcDbPolyline
 90
3
 70
0
 10
119.434362
 20
1187.773004
 30
0.0
 10
119.434362
 20
1260.439751
 30
0.0
 10
119.457476
 20
1311.267746
 30
0.0
  0
SPLINE
  5
11d
100
AcDbEntity
  8
Layer_1
 62
7
100
AcDbSpline
 70
8
 71
3
 72
8
 73
4
 74
0
 40
0
 40
0
 40
0
 40
0
 40
1
 40
1
 40
1
 40
1
 10
40.569262
 20
1639.966339
 30
0.0
 10
40.569262
 20
1639.966339
 30
0.0
 10
22.996861
 20
1517.442132
 30
0.0
 10
0.141111
 20
1469.397313
 30
0.0
  0
SPLINE
  5
11e
100
AcDbEntity
  8
Layer_1
 62
7
100
AcDbSpline
 70
8
 71
3
 72
8
 73
4
 74
0
 40
0
 40
0
 40
0
 40
0
 40
1
 40
1
 40
1
 40
1
 10
0.141111
 20
1469.397313
 30
0.0
 10
0.141111
 20
1460.156426
 30
0.0
 10
0.141111
 20
1450.351123
 30
0.0
 10
0.141111
 20
1441.110236
 30
0.0
  0
SPLINE
  5
11f
100
AcDbEntity
  8
Layer_1
 62
7
100
AcDbSpline
 70
8
 71
3
 72
8
 73
4
 74
0
 40
0
 40
0
 40
0
 40
0
 40
1
 40
1
 40
1
 40
1
 10
0.141111
 20
1441.110236
 30
0.0
 10
14.713334
 20
1438.105613
 30
0.0
 10
20.452938
 20
1408.194912
 30
0.0
 10
15.815606
 20
1390.296971
 30
0.0
  0
SPLINE
  5
120
100
AcDbEntity
  8
Layer_1
 62
7
100
AcDbSpline
 70
8
 71
3
 72
8
 73
4
 74
0
 40
0
 40
0
 40
0
 40
0
 40
1
 40
1
 40
1
 40
1
 10
15.815606
 20
1390.296971
 30
0.0
 10
15.815606
 20
1390.296971
 30
0.0
 10
26.475101
 20
1387.149770
 30
0.0
 10
31.742993
 20
1382.444759
 30
0.0
  0
SPLINE
  5
121
100
AcDbEntity
  8
Layer_1
 62
7
100
AcDbSpline
 70
8
 71
3
 72
8
 73
4
 74
0
 40
0
 40
0
 40
0
 40
0
 40
1
 40
1
 40
1
 40
1
 10
31.742993
 20
1382.444759
 30
0.0
 10
37.010882
 20
1377.739745
 30
0.0
 10
40.330355
 20
1366.392577
 30
0.0
 10
40.330355
 20
1366.392577
 30
0.0
  0
SPLINE
  5
122
100
AcDbEntity
  8
Layer_1
 62
7
100
AcDbSpline
 70
8
 71
3
 72
8
 73
4
 74
0
 40
0
 40
0
 40
0
 40
0
 40
1
 40
1
 40
1
 40
1
 10
40.330355
 20
1366.392577
 30
0.0
 10
40.330355
 20
1366.392577
 30
0.0
 10
28.206108
 20
1358.568954
 30
0.0
 10
23.214294
 20
1353.444363
 30
0.0
  0
SPLINE
  5
123
100
AcDbEntity
  8
Layer_1
 62
7
100
AcDbSpline
 70
8
 71
3
 72
8
 73
4
 74
0
 40
0
 40
0
 40
0
 40
0
 40
1
 40
1
 40
1
 40
1
 10
23.214294
 20
1353.444363
 30
0.0
 10
20.365049
 20
1350.519355
 30
0.0
 10
17.358038
 20
1347.502992
 30
0.0
 10
14.783923
 20
1344.236016
 30
0.0
  0
SPLINE
  5
124
100
AcDbEntity
  8
Layer_1
 62
7
100
AcDbSpline
 70
8
 71
3
 72
8
 73
4
 74
0
 40
0
 40
0
 40
0
 40
0
 40
1
 40
1
 40
1
 40
1
 10
14.783923
 20
1344.236016
 30
0.0
 10
5.776459
 20
1333.044521
 30
0.0
 10
1.187185
 20
1321.215543
 30
0.0
 10
0.141111
 20
1305.634788
 30
0.0
  0
LWPOLYLINE
  5
125
100
AcDbEntity
  8
Layer_1
 62
7
100
AcDbPolyline
 90
2
 70
0
 10
79.820474
 20
1639.966339
 30
0.0
 10
40.569262
 20
1639.966339
 30
0.0
  0
SPLINE
  5
126
100
AcDbEntity
  8
Layer_1
 62
7
100
AcDbSpline
 70
8
 71
3
 72
8
 73
4
 74
0
 40
0
 40
0
 40
0
 40
0
 40
1
 40
1
 40
1
 40
1
 10
0.141111
 20
1277.054173
 30
0.0
 10
0.141111
 20
1267.401369
 30
0.0
 10
2.216613
 20
1257.864671
 30
0.0
 10
5.054117
 20
1248.322032
 30
0.0
  0
SPLINE
  5
127
100
AcDbEntity
  8
Layer_1
 62
7
100
AcDbSpline
 70
8
 71
3
 72
8
 73
4
 74
0
 40
0
 40
0
 40
0
 40
0
 40
1
 40
1
 40
1
 40
1
 10
5.054117
 20
1248.322032
 30
0.0
 10
10.785232
 20
1229.478223
 30
0.0
 10
17.949517
 20
1208.114735
 30
0.0
 10
25.381921
 20
1188.043231
 30
0.0
  0
SPLINE
  5
128
100
AcDbEntity
  8
Layer_1
 62
7
100
AcDbSpline
 70
8
 71
3
 72
8
 73
4
 74
0
 40
0
 40
0
 40
0
 40
0
 40
1
 40
1
 40
1
 40
1
 10
25.381921
 20
1188.043231
 30
0.0
 10
33.216845
 20
1167.232187
 30
0.0
 10
42.870363
 20
1144.995083
 30
0.0
 10
53.642848
 20
1121.372662
 30
0.0
  0
SPLINE
  5
129
100
AcDbEntity
  8
Layer_1
 62
7
100
AcDbSpline
 70
8
 71
3
 72
8
 73
4
 74
0
 40
0
 40
0
 40
0
 40
0
 40
1
 40
1
 40
1
 40
1
 10
53.642848
 20
1121.372662
 30
0.0
 10
65.397612
 20
1094.900633
 30
0.0
 10
80.901255
 20
1068.923093
 30
0.0
 10
74.562477
 20
1038.703325
 30
0.0
  0
SPLINE
  5
12a
100
AcDbEntity
  8
Layer_1
 62
7
100
AcDbSpline
 70
8
 71
3
 72
8
 73
4
 74
0
 40
0
 40
0
 40
0
 40
0
 40
1
 40
1
 40
1
 40
1
 10
74.562477
 20
1038.703325
 30
0.0
 10
72.884392
 20
1032.501237
 30
0.0
 10
69.158500
 20
1026.442773
 30
0.0
 10
64.102663
 20
1022.767082
 30
0.0
  0
SPLINE
  5
12b
100
AcDbEntity
  8
Layer_1
 62
7
100
AcDbSpline
 70
8
 71
3
 72
8
 73
4
 74
0
 40
0
 40
0
 40
0
 40
0
 40
1
 40
1
 40
1
 40
1
 10
64.102663
 20
1022.767082
 30
0.0
 10
58.056264
 20
1018.506261
 30
0.0
 10
48.396613
 20
1016.711835
 30
0.0
 10
42.232140
 20
1022.767082
 30
0.0
  0
SPLINE
  5
12c
100
AcDbEntity
  8
Layer_1
 62
7
100
AcDbSpline
 70
8
 71
3
 72
8
 73
4
 74
0
 40
0
 40
0
 40
0
 40
0
 40
1
 40
1
 40
1
 40
1
 10
42.232140
 20
1022.767082
 30
0.0
 10
40.316788
 20
1024.443765
 30
0.0
 10
38.317029
 20
1026.339988
 30
0.0
 10
37.477678
 20
1028.743166
 30
0.0
  0
SPLINE
  5
12d
100
AcDbEntity
  8
Layer_1
 62
7
100
AcDbSpline
 70
8
 71
3
 72
8
 73
4
 74
0
 40
0
 40
0
 40
0
 40
0
 40
1
 40
1
 40
1
 40
1
 10
37.477678
 20
1028.743166
 30
0.0
 10
36.164004
 20
1032.504426
 30
0.0
 10
36.259652
 20
1036.902070
 30
0.0
 10
37.477678
 20
1040.695362
 30
0.0
  0
SPLINE
  5
12e
100
AcDbEntity
  8
Layer_1
 62
7
100
AcDbSpline
 70
8
 71
3
 72
8
 73
4
 74
0
 40
0
 40
0
 40
0
 40
0
 40
1
 40
1
 40
1
 40
1
 10
37.477678
 20
1040.695362
 30
0.0
 10
38.476389
 20
1043.805677
 30
0.0
 10
40.459717
 20
1046.859378
 30
0.0
 10
43.183032
 20
1048.663511
 30
0.0
  0
SPLINE
  5
12f
100
AcDbEntity
  8
Layer_1
 62
7
100
AcDbSpline
 70
8
 71
3
 72
8
 73
4
 74
0
 40
0
 40
0
 40
0
 40
0
 40
1
 40
1
 40
1
 40
1
 10
43.183032
 20
1048.663511
 30
0.0
 10
46.974433
 20
1051.175238
 30
0.0
 10
56.495524
 20
1051.651545
 30
0.0
 10
56.495524
 20
1051.651545
 30
0.0
  0
SPLINE
  5
130
100
AcDbEntity
  8
Layer_1
 62
7
100
AcDbSpline
 70
8
 71
3
 72
8
 73
4
 74
0
 40
0
 40
0
 40
0
 40
0
 40
1
 40
1
 40
1
 40
1
 10
56.495524
 20
1051.651545
 30
0.0
 10
56.495524
 20
1051.651545
 30
0.0
 10
58.590790
 20
1062.578173
 30
0.0
 10
57.101052
 20
1067.730591
 30
0.0
  0
SPLINE
  5
131
100
AcDbEntity
  8
Layer_1
 62
7
100
AcDbSpline
 70
8
 71
3
 72
8
 73
4
 74
0
 40
0
 40
0
 40
0
 40
0
 40
1
 40
1
 40
1
 40
1
 10
57.101052
 20
1067.730591
 30
0.0
 10
54.276964
 20
1076.915626
 30
0.0
 10
44.381432
 20
1077.465141
 30
0.0
 10
38.428572
 20
1084.520073
 30
0.0
  0
SPLINE
  5
132
100
AcDbEntity
  8
Layer_1
 62
7
100
AcDbSpline
 70
8
 71
3
 72
8
 73
4
 74
0
 40
0
 40
0
 40
0
 40
0
 40
1
 40
1
 40
1
 40
1
 10
38.428572
 20
1084.520073
 30
0.0
 10
36.216921
 20
1090.653586
 30
0.0
 10
43.654704
 20
1101.419800
 30
0.0
 10
44.133926
 20
1108.424456
 30
0.0
  0
SPLINE
  5
133
100
AcDbEntity
  8
Layer_1
 62
7
100
AcDbSpline
 70
8
 71
3
 72
8
 73
4
 74
0
 40
0
 40
0
 40
0
 40
0
 40
1
 40
1
 40
1
 40
1
 10
44.133926
 20
1108.424456
 30
0.0
 10
37.548231
 20
1113.917144
 30
0.0
 10
34.544271
 20
1116.960259
 30
0.0
 10
26.066971
 20
1119.380631
 30
0.0
  0
SPLINE
  5
134
100
AcDbEntity
  8
Layer_1
 62
7
100
AcDbSpline
 70
8
 71
3
 72
8
 73
4
 74
0
 40
0
 40
0
 40
0
 40
0
 40
1
 40
1
 40
1
 40
1
 10
26.066971
 20
1119.380631
 30
0.0
 10
26.066971
 20
1119.380631
 30
0.0
 10
28.675664
 20
1128.024132
 30
0.0
 10
27.968756
 20
1132.328839
 30
0.0
  0
SPLINE
  5
135
100
AcDbEntity
  8
Layer_1
 62
7
100
AcDbSpline
 70
8
 71
3
 72
8
 73
4
 74
0
 40
0
 40
0
 40
0
 40
0
 40
1
 40
1
 40
1
 40
1
 10
27.968756
 20
1132.328839
 30
0.0
 10
27.244131
 20
1136.741440
 30
0.0
 10
24.973774
 20
1140.595495
 30
0.0
 10
22.441399
 20
1144.281035
 30
0.0
  0
SPLINE
  5
136
100
AcDbEntity
  8
Layer_1
 62
7
100
AcDbSpline
 70
8
 71
3
 72
8
 73
4
 74
0
 40
0
 40
0
 40
0
 40
0
 40
1
 40
1
 40
1
 40
1
 10
22.441399
 20
1144.281035
 30
0.0
 10
16.118312
 20
1153.483427
 30
0.0
 10
1.270000
 20
1169.181417
 30
0.0
 10
1.270000
 20
1169.181417
 30
0.0
  0
SPLINE
  5
137
100
AcDbEntity
  8
Layer_1
 62
7
100
AcDbSpline
 70
8
 71
3
 72
8
 73
4
 74
0
 40
0
 40
0
 40
0
 40
0
 40
1
 40
1
 40
1
 40
1
 10
1.270000
 20
1169.181417
 30
0.0
 10
1.270000
 20
1169.181417
 30
0.0
 10
-3.005333
 20
1114.743240
 30
0.0
 10
10.992084
 20
1091.451039
 30
0.0
  0
SPLINE
  5
138
100
AcDbEntity
  8
Layer_1
 62
7
100
AcDbSpline
 70
8
 71
3
 72
8
 73
4
 74
0
 40
0
 40
0
 40
0
 40
0
 40
1
 40
1
 40
1
 40
1
 10
10.992084
 20
1091.451039
 30
0.0
 10
13.377181
 20
1086.136975
 30
0.0
 10
18.815826
 20
1075.555936
 30
0.0
 10
18.815826
 20
1075.555936
 30
0.0
  0
SPLINE
  5
139
100
AcDbEntity
  8
Layer_1
 62
7
100
AcDbSpline
 70
8
 71
3
 72
8
 73
4
 74
0
 40
0
 40
0
 40
0
 40
0
 40
1
 40
1
 40
1
 40
1
 10
18.815826
 20
1075.555936
 30
0.0
 10
18.815826
 20
1075.555936
 30
0.0
 10
5.138544
 20
1060.715873
 30
0.0
 10
2.503113
 20
1051.651545
 30
0.0
  0
SPLINE
  5
13a
100
AcDbEntity
  8
Layer_1
 62
7
100
AcDbSpline
 70
8
 71
3
 72
8
 73
4
 74
0
 40
0
 40
0
 40
0
 40
0
 40
1
 40
1
 40
1
 40
1
 10
2.503113
 20
1051.651545
 30
0.0
 10
-0.463008
 20
1041.449827
 30
0.0
 10
0.172765
 20
1030.119000
 30
0.0
 10
2.503113
 20
1019.779026
 30
0.0
  0
SPLINE
  5
13b
100
AcDbEntity
  8
Layer_1
 62
7
100
AcDbSpline
 70
8
 71
3
 72
8
 73
4
 74
0
 40
0
 40
0
 40
0
 40
0
 40
1
 40
1
 40
1
 40
1
 10
2.503113
 20
1019.779026
 30
0.0
 10
6.998081
 20
1000.971117
 30
0.0
 10
24.815934
 20
988.920849
 30
0.0
 10
33.674110
 20
971.970272
 30
0.0
  0
SPLINE
  5
13c
100
AcDbEntity
  8
Layer_1
 62
7
100
AcDbSpline
 70
8
 71
3
 72
8
 73
4
 74
0
 40
0
 40
0
 40
0
 40
0
 40
1
 40
1
 40
1
 40
1
 10
33.674110
 20
971.970272
 30
0.0
 10
32.220242
 20
962.104404
 30
0.0
 10
9.159361
 20
952.282224
 30
0.0
 10
9.159361
 20
952.282224
 30
0.0
  0
SPLINE
  5
13d
100
AcDbEntity
  8
Layer_1
 62
7
100
AcDbSpline
 70
8
 71
3
 72
8
 73
4
 74
0
 40
0
 40
0
 40
0
 40
0
 40
1
 40
1
 40
1
 40
1
 10
9.159361
 20
952.282224
 30
0.0
 10
9.159361
 20
952.282224
 30
0.0
 10
16.897133
 20
946.944526
 30
0.0
 10
17.895386
 20
943.085815
 30
0.0
  0
SPLINE
  5
13e
100
AcDbEntity
  8
Layer_1
 62
7
100
AcDbSpline
 70
8
 71
3
 72
8
 73
4
 74
0
 40
0
 40
0
 40
0
 40
0
 40
1
 40
1
 40
1
 40
1
 10
17.895386
 20
943.085815
 30
0.0
 10
20.899818
 20
930.019716
 30
0.0
 10
2.834479
 20
916.934511
 30
0.0
 10
0.141111
 20
903.676755
 30
0.0
  0
LWPOLYLINE
  5
13f
100
AcDbEntity
  8
Layer_1
 62
7
100
AcDbPolyline
 90
2
 70
0
 10
0.141111
 20
1305.634788
 30
0.0
 10
0.141111
 20
1277.054173
 30
0.0
  0
SPLINE
  5
140
100
AcDbEntity
  8
Layer_1
 62
7
100
AcDbSpline
 70
8
 71
3
 72
8
 73
4
 74
0
 40
0
 40
0
 40
0
 40
0
 40
1
 40
1
 40
1
 40
1
 10
0.141111
 20
736.110698
 30
0.0
 10
2.834479
 20
722.852942
 30
0.0
 10
20.899818
 20
709.767737
 30
0.0
 10
17.895386
 20
696.701638
 30
0.0
  0
SPLINE
  5
141
100
AcDbEntity
  8
Layer_1
 62
7
100
AcDbSpline
 70
8
 71
3
 72
8
 73
4
 74
0
 40
0
 40
0
 40
0
 40
0
 40
1
 40
1
 40
1
 40
1
 10
17.895386
 20
696.701638
 30
0.0
 10
16.897133
 20
692.842926
 30
0.0
 10
9.159361
 20
687.505229
 30
0.0
 10
9.159361
 20
687.505229
 30
0.0
  0
SPLINE
  5
142
100
AcDbEntity
  8
Layer_1
 62
7
100
AcDbSpline
 70
8
 71
3
 72
8
 73
4
 74
0
 40
0
 40
0
 40
0
 40
0
 40
1
 40
1
 40
1
 40
1
 10
9.159361
 20
687.505229
 30
0.0
 10
9.159361
 20
687.505229
 30
0.0
 10
32.220242
 20
677.683049
 30
0.0
 10
33.674110
 20
667.817181
 30
0.0
  0
SPLINE
  5
143
100
AcDbEntity
  8
Layer_1
 62
7
100
AcDbSpline
 70
8
 71
3
 72
8
 73
4
 74
0
 40
0
 40
0
 40
0
 40
0
 40
1
 40
1
 40
1
 40
1
 10
33.674110
 20
667.817181
 30
0.0
 10
24.815934
 20
650.866604
 30
0.0
 10
6.998081
 20
638.816336
 30
0.0
 10
2.503113
 20
620.008426
 30
0.0
  0
SPLINE
  5
144
100
AcDbEntity
  8
Layer_1
 62
7
100
AcDbSpline
 70
8
 71
3
 72
8
 73
4
 74
0
 40
0
 40
0
 40
0
 40
0
 40
1
 40
1
 40
1
 40
1
 10
2.503113
 20
620.008426
 30
0.0
 10
0.172765
 20
609.668453
 30
0.0
 10
-0.463008
 20
598.337626
 30
0.0
 10
2.503113
 20
588.135914
 30
0.0
  0
SPLINE
  5
145
100
AcDbEntity
  8
Layer_1
 62
7
100
AcDbSpline
 70
8
 71
3
 72
8
 73
4
 74
0
 40
0
 40
0
 40
0
 40
0
 40
1
 40
1
 40
1
 40
1
 10
2.503113
 20
588.135914
 30
0.0
 10
5.138544
 20
579.071585
 30
0.0
 10
18.815826
 20
564.231522
 30
0.0
 10
18.815826
 20
564.231522
 30
0.0
  0
SPLINE
  5
146
100
AcDbEntity
  8
Layer_1
 62
7
100
AcDbSpline
 70
8
 71
3
 72
8
 73
4
 74
0
 40
0
 40
0
 40
0
 40
0
 40
1
 40
1
 40
1
 40
1
 10
18.815826
 20
564.231522
 30
0.0
 10
18.815826
 20
564.231522
 30
0.0
 10
13.377181
 20
553.650475
 30
0.0
 10
10.992084
 20
548.336400
 30
0.0
  0
SPLINE
  5
147
100
AcDbEntity
  8
Layer_1
 62
7
100
AcDbSpline
 70
8
 71
3
 72
8
 73
4
 74
0
 40
0
 40
0
 40
0
 40
0
 40
1
 40
1
 40
1
 40
1
 10
10.992084
 20
548.336400
 30
0.0
 10
-3.005333
 20
525.044205
 30
0.0
 10
1.270000
 20
470.606022
 30
0.0
 10
1.270000
 20
470.606022
 30
0.0
  0
SPLINE
  5
148
100
AcDbEntity
  8
Layer_1
 62
7
100
AcDbSpline
 70
8
 71
3
 72
8
 73
4
 74
0
 40
0
 40
0
 40
0
 40
0
 40
1
 40
1
 40
1
 40
1
 10
1.270000
 20
470.606022
 30
0.0
 10
1.270000
 20
470.606022
 30
0.0
 10
16.118312
 20
486.304012
 30
0.0
 10
22.441399
 20
495.506404
 30
0.0
  0
SPLINE
  5
149
100
AcDbEntity
  8
Layer_1
 62
7
100
AcDbSpline
 70
8
 71
3
 72
8
 73
4
 74
0
 40
0
 40
0
 40
0
 40
0
 40
1
 40
1
 40
1
 40
1
 10
22.441399
 20
495.506404
 30
0.0
 10
24.973774
 20
499.191944
 30
0.0
 10
27.244131
 20
503.045998
 30
0.0
 10
27.968756
 20
507.458599
 30
0.0
  0
SPLINE
  5
14a
100
AcDbEntity
  8
Layer_1
 62
7
100
AcDbSpline
 70
8
 71
3
 72
8
 73
4
 74
0
 40
0
 40
0
 40
0
 40
0
 40
1
 40
1
 40
1
 40
1
 10
27.968756
 20
507.458599
 30
0.0
 10
28.675664
 20
511.763307
 30
0.0
 10
26.066971
 20
520.406814
 30
0.0
 10
26.066971
 20
520.406814
 30
0.0
  0
SPLINE
  5
14b
100
AcDbEntity
  8
Layer_1
 62
7
100
AcDbSpline
 70
8
 71
3
 72
8
 73
4
 74
0
 40
0
 40
0
 40
0
 40
0
 40
1
 40
1
 40
1
 40
1
 10
26.066971
 20
520.406814
 30
0.0
 10
34.544271
 20
522.827180
 30
0.0
 10
37.548231
 20
525.870297
 30
0.0
 10
44.133926
 20
531.362991
 30
0.0
  0
SPLINE
  5
14c
100
AcDbEntity
  8
Layer_1
 62
7
100
AcDbSpline
 70
8
 71
3
 72
8
 73
4
 74
0
 40
0
 40
0
 40
0
 40
0
 40
1
 40
1
 40
1
 40
1
 10
44.133926
 20
531.362991
 30
0.0
 10
43.654704
 20
538.367662
 30
0.0
 10
36.216921
 20
549.133875
 30
0.0
 10
38.428572
 20
555.267382
 30
0.0
  0
SPLINE
  5
14d
100
AcDbEntity
  8
Layer_1
 62
7
100
AcDbSpline
 70
8
 71
3
 72
8
 73
4
 74
0
 40
0
 40
0
 40
0
 40
0
 40
1
 40
1
 40
1
 40
1
 10
38.428572
 20
555.267382
 30
0.0
 10
44.381432
 20
562.322317
 30
0.0
 10
54.276964
 20
562.871832
 30
0.0
 10
57.101052
 20
572.056867
 30
0.0
  0
SPLINE
  5
14e
100
AcDbEntity
  8
Layer_1
 62
7
100
AcDbSpline
 70
8
 71
3
 72
8
 73
4
 74
0
 40
0
 40
0
 40
0
 40
0
 40
1
 40
1
 40
1
 40
1
 10
57.101052
 20
572.056867
 30
0.0
 10
58.590790
 20
577.209285
 30
0.0
 10
56.495524
 20
588.135914
 30
0.0
 10
56.495524
 20
588.135914
 30
0.0
  0
SPLINE
  5
14f
100
AcDbEntity
  8
Layer_1
 62
7
100
AcDbSpline
 70
8
 71
3
 72
8
 73
4
 74
0
 40
0
 40
0
 40
0
 40
0
 40
1
 40
1
 40
1
 40
1
 10
56.495524
 20
588.135914
 30
0.0
 10
56.495524
 20
588.135914
 30
0.0
 10
46.974433
 20
588.612220
 30
0.0
 10
43.183032
 20
591.123942
 30
0.0
  0
SPLINE
  5
150
100
AcDbEntity
  8
Layer_1
 62
7
100
AcDbSpline
 70
8
 71
3
 72
8
 73
4
 74
0
 40
0
 40
0
 40
0
 40
0
 40
1
 40
1
 40
1
 40
1
 10
43.183032
 20
591.123942
 30
0.0
 10
40.459717
 20
592.928075
 30
0.0
 10
38.476389
 20
595.981776
 30
0.0
 10
37.477678
 20
599.092091
 30
0.0
  0
SPLINE
  5
151
100
AcDbEntity
  8
Layer_1
 62
7
100
AcDbSpline
 70
8
 71
3
 72
8
 73
4
 74
0
 40
0
 40
0
 40
0
 40
0
 40
1
 40
1
 40
1
 40
1
 10
37.477678
 20
599.092091
 30
0.0
 10
36.259652
 20
602.885383
 30
0.0
 10
36.164004
 20
607.283026
 30
0.0
 10
37.477678
 20
611.044287
 30
0.0
  0
SPLINE
  5
152
100
AcDbEntity
  8
Layer_1
 62
7
100
AcDbSpline
 70
8
 71
3
 72
8
 73
4
 74
0
 40
0
 40
0
 40
0
 40
0
 40
1
 40
1
 40
1
 40
1
 10
37.477678
 20
611.044287
 30
0.0
 10
38.317029
 20
613.447465
 30
0.0
 10
40.316788
 20
615.343688
 30
0.0
 10
42.232140
 20
617.020370
 30
0.0
  0
SPLINE
  5
153
100
AcDbEntity
  8
Layer_1
 62
7
100
AcDbSpline
 70
8
 71
3
 72
8
 73
4
 74
0
 40
0
 40
0
 40
0
 40
0
 40
1
 40
1
 40
1
 40
1
 10
42.232140
 20
617.020370
 30
0.0
 10
48.396613
 20
623.075618
 30
0.0
 10
58.056264
 20
621.281192
 30
0.0
 10
64.102663
 20
617.020370
 30
0.0
  0
SPLINE
  5
154
100
AcDbEntity
  8
Layer_1
 62
7
100
AcDbSpline
 70
8
 71
3
 72
8
 73
4
 74
0
 40
0
 40
0
 40
0
 40
0
 40
1
 40
1
 40
1
 40
1
 10
64.102663
 20
617.020370
 30
0.0
 10
69.158500
 20
613.344680
 30
0.0
 10
72.884392
 20
607.286216
 30
0.0
 10
74.562477
 20
601.084128
 30
0.0
  0
SPLINE
  5
155
100
AcDbEntity
  8
Layer_1
 62
7
100
AcDbSpline
 70
8
 71
3
 72
8
 73
4
 74
0
 40
0
 40
0
 40
0
 40
0
 40
1
 40
1
 40
1
 40
1
 10
74.562477
 20
601.084128
 30
0.0
 10
80.901255
 20
570.864365
 30
0.0
 10
65.397612
 20
544.886826
 30
0.0
 10
53.642848
 20
518.414776
 30
0.0
  0
SPLINE
  5
156
100
AcDbEntity
  8
Layer_1
 62
7
100
AcDbSpline
 70
8
 71
3
 72
8
 73
4
 74
0
 40
0
 40
0
 40
0
 40
0
 40
1
 40
1
 40
1
 40
1
 10
53.642848
 20
518.414776
 30
0.0
 10
42.870363
 20
494.792381
 30
0.0
 10
33.216845
 20
472.555274
 30
0.0
 10
25.381921
 20
451.744207
 30
0.0
  0
SPLINE
  5
157
100
AcDbEntity
  8
Layer_1
 62
7
100
AcDbSpline
 70
8
 71
3
 72
8
 73
4
 74
0
 40
0
 40
0
 40
0
 40
0
 40
1
 40
1
 40
1
 40
1
 10
25.381921
 20
451.744207
 30
0.0
 10
17.949517
 20
431.672704
 30
0.0
 10
10.785232
 20
410.309216
 30
0.0
 10
5.054117
 20
391.465407
 30
0.0
  0
SPLINE
  5
158
100
AcDbEntity
  8
Layer_1
 62
7
100
AcDbSpline
 70
8
 71
3
 72
8
 73
4
 74
0
 40
0
 40
0
 40
0
 40
0
 40
1
 40
1
 40
1
 40
1
 10
5.054117
 20
391.465407
 30
0.0
 10
2.216613
 20
381.922768
 30
0.0
 10
0.141111
 20
372.386084
 30
0.0
 10
0.141111
 20
362.733266
 30
0.0
  0
LWPOLYLINE
  5
159
100
AcDbEntity
  8
Layer_1
 62
7
100
AcDbPolyline
 90
4
 70
0
 10
0.141111
 20
903.676755
 30
0.0
 10
0.141111
 20
820.141094
 30
0.0
 10
0.141111
 20
819.646359
 30
0.0
 10
0.141111
 20
736.110698
 30
0.0
  0
SPLINE
  5
15a
100
AcDbEntity
  8
Layer_1
 62
7
100
AcDbSpline
 70
8
 71
3
 72
8
 73
4
 74
0
 40
0
 40
0
 40
0
 40
0
 40
1
 40
1
 40
1
 40
1
 10
0.141111
 20
334.152678
 30
0.0
 10
1.187185
 20
318.571923
 30
0.0
 10
5.776459
 20
306.742945
 30
0.0
 10
14.783923
 20
295.551423
 30
0.0
  0
SPLINE
  5
15b
100
AcDbEntity
  8
Layer_1
 62
7
100
AcDbSpline
 70
8
 71
3
 72
8
 73
4
 74
0
 40
0
 40
0
 40
0
 40
0
 40
1
 40
1
 40
1
 40
1
 10
14.783923
 20
295.551423
 30
0.0
 10
17.358038
 20
292.284447
 30
0.0
 10
20.365049
 20
289.268084
 30
0.0
 10
23.214294
 20
286.343076
 30
0.0
  0
SPLINE
  5
15c
100
AcDbEntity
  8
Layer_1
 62
7
100
AcDbSpline
 70
8
 71
3
 72
8
 73
4
 74
0
 40
0
 40
0
 40
0
 40
0
 40
1
 40
1
 40
1
 40
1
 10
23.214294
 20
286.343076
 30
0.0
 10
28.206108
 20
281.218485
 30
0.0
 10
40.330355
 20
273.394862
 30
0.0
 10
40.330355
 20
273.394862
 30
0.0
  0
SPLINE
  5
15d
100
AcDbEntity
  8
Layer_1
 62
7
100
AcDbSpline
 70
8
 71
3
 72
8
 73
4
 74
0
 40
0
 40
0
 40
0
 40
0
 40
1
 40
1
 40
1
 40
1
 10
40.330355
 20
273.394862
 30
0.0
 10
40.330355
 20
273.394862
 30
0.0
 10
37.010882
 20
262.047694
 30
0.0
 10
31.742993
 20
257.342683
 30
0.0
  0
SPLINE
  5
15e
100
AcDbEntity
  8
Layer_1
 62
7
100
AcDbSpline
 70
8
 71
3
 72
8
 73
4
 74
0
 40
0
 40
0
 40
0
 40
0
 40
1
 40
1
 40
1
 40
1
 10
31.742993
 20
257.342683
 30
0.0
 10
26.475101
 20
252.637671
 30
0.0
 10
15.815606
 20
249.490470
 30
0.0
 10
15.815606
 20
249.490470
 30
0.0
  0
SPLINE
  5
15f
100
AcDbEntity
  8
Layer_1
 62
7
100
AcDbSpline
 70
8
 71
3
 72
8
 73
4
 74
0
 40
0
 40
0
 40
0
 40
0
 40
1
 40
1
 40
1
 40
1
 10
15.815606
 20
249.490470
 30
0.0
 10
20.452938
 20
231.592530
 30
0.0
 10
14.713334
 20
201.681828
 30
0.0
 10
0.141111
 20
198.677206
 30
0.0
  0
SPLINE
  5
160
100
AcDbEntity
  8
Layer_1
 62
7
100
AcDbSpline
 70
8
 71
3
 72
8
 73
4
 74
0
 40
0
 40
0
 40
0
 40
0
 40
1
 40
1
 40
1
 40
1
 10
0.141111
 20
198.677206
 30
0.0
 10
0.141111
 20
189.436319
 30
0.0
 10
0.141111
 20
179.631016
 30
0.0
 10
0.141111
 20
170.390129
 30
0.0
  0
SPLINE
  5
161
100
AcDbEntity
  8
Layer_1
 62
7
100
AcDbSpline
 70
8
 71
3
 72
8
 73
4
 74
0
 40
0
 40
0
 40
0
 40
0
 40
1
 40
1
 40
1
 40
1
 10
0.141111
 20
170.390129
 30
0.0
 10
22.996861
 20
122.345323
 30
0.0
 10
40.569262
 20
-0.178886
 30
0.0
 10
40.569262
 20
-0.178886
 30
0.0
  0
LWPOLYLINE
  5
162
100
AcDbEntity
  8
Layer_1
 62
7
100
AcDbPolyline
 90
2
 70
0
 10
0.141111
 20
362.733266
 30
0.0
 10
0.141111
 20
334.152678
 30
0.0
  0
SPLINE
  5
163
100
AcDbEntity
  8
Layer_1
 62
7
100
AcDbSpline
 70
8
 71
3
 72
8
 73
4
 74
0
 40
0
 40
0
 40
0
 40
0
 40
1
 40
1
 40
1
 40
1
 10
79.820474
 20
-0.178886
 30
0.0
 10
79.820474
 20
-0.178886
 30
0.0
 10
95.274528
 20
121.902291
 30
0.0
 10
119.434354
 20
170.390129
 30
0.0
  0
SPLINE
  5
164
100
AcDbEntity
  8
Layer_1
 62
7
100
AcDbSpline
 70
8
 71
3
 72
8
 73
4
 74
0
 40
0
 40
0
 40
0
 40
0
 40
1
 40
1
 40
1
 40
1
 10
119.434354
 20
170.390129
 30
0.0
 10
119.434354
 20
179.819145
 30
0.0
 10
119.434354
 20
189.248190
 30
0.0
 10
119.434354
 20
198.677206
 30
0.0
  0
SPLINE
  5
165
100
AcDbEntity
  8
Layer_1
 62
7
100
AcDbSpline
 70
8
 71
3
 72
8
 73
4
 74
0
 40
0
 40
0
 40
0
 40
0
 40
1
 40
1
 40
1
 40
1
 10
119.434354
 20
198.677206
 30
0.0
 10
108.662310
 20
207.292096
 30
0.0
 10
97.660356
 20
218.724297
 30
0.0
 10
84.071401
 20
222.598051
 30
0.0
  0
SPLINE
  5
166
100
AcDbEntity
  8
Layer_1
 62
7
100
AcDbSpline
 70
8
 71
3
 72
8
 73
4
 74
0
 40
0
 40
0
 40
0
 40
0
 40
1
 40
1
 40
1
 40
1
 10
84.071401
 20
222.598051
 30
0.0
 10
90.402348
 20
232.766179
 30
0.0
 10
103.067443
 20
231.232160
 30
0.0
 10
106.684028
 20
231.866285
 30
0.0
  0
SPLINE
  5
167
100
AcDbEntity
  8
Layer_1
 62
7
100
AcDbSpline
 70
8
 71
3
 72
8
 73
4
 74
0
 40
0
 40
0
 40
0
 40
0
 40
1
 40
1
 40
1
 40
1
 10
106.684028
 20
231.866285
 30
0.0
 10
110.300624
 20
232.500410
 30
0.0
 10
96.639468
 20
239.104692
 30
0.0
 10
95.594568
 20
244.647565
 30
0.0
  0
SPLINE
  5
168
100
AcDbEntity
  8
Layer_1
 62
7
100
AcDbSpline
 70
8
 71
3
 72
8
 73
4
 74
0
 40
0
 40
0
 40
0
 40
0
 40
1
 40
1
 40
1
 40
1
 10
95.594568
 20
244.647565
 30
0.0
 10
94.416821
 20
250.895175
 30
0.0
 10
99.565667
 20
256.739066
 30
0.0
 10
101.990938
 20
262.615948
 30
0.0
  0
SPLINE
  5
169
100
AcDbEntity
  8
Layer_1
 62
7
100
AcDbSpline
 70
8
 71
3
 72
8
 73
4
 74
0
 40
0
 40
0
 40
0
 40
0
 40
1
 40
1
 40
1
 40
1
 10
101.990938
 20
262.615948
 30
0.0
 10
108.984105
 20
279.310409
 30
0.0
 10
114.991284
 20
293.947893
 30
0.0
 10
117.488276
 20
310.506661
 30
0.0
  0
SPLINE
  5
16a
100
AcDbEntity
  8
Layer_1
 62
7
100
AcDbSpline
 70
8
 71
3
 72
8
 73
4
 74
0
 40
0
 40
0
 40
0
 40
0
 40
1
 40
1
 40
1
 40
1
 10
117.488276
 20
310.506661
 30
0.0
 10
118.342140
 20
316.303336
 30
0.0
 10
119.817005
 20
322.295393
 30
0.0
 10
119.457476
 20
328.519720
 30
0.0
  0
LWPOLYLINE
  5
16b
100
AcDbEntity
  8
Layer_1
 62
7
100
AcDbPolyline
 90
2
 70
0
 10
40.569262
 20
-0.178886
 30
0.0
 10
79.820474
 20
-0.178886
 30
0.0
  0
SPLINE
  5
16c
100
AcDbEntity
  8
Layer_1
 62
7
100
AcDbSpline
 70
8
 71
3
 72
8
 73
4
 74
0
 40
0
 40
0
 40
0
 40
0
 40
1
 40
1
 40
1
 40
1
 10
119.434362
 20
452.014435
 30
0.0
 10
119.434362
 20
452.014435
 30
0.0
 10
109.809001
 20
422.371055
 30
0.0
 10
104.218145
 20
412.969950
 30
0.0
  0
SPLINE
  5
16d
100
AcDbEntity
  8
Layer_1
 62
7
100
AcDbSpline
 70
8
 71
3
 72
8
 73
4
 74
0
 40
0
 40
0
 40
0
 40
0
 40
1
 40
1
 40
1
 40
1
 10
104.218145
 20
412.969950
 30
0.0
 10
100.366850
 20
406.493966
 30
0.0
 10
91.281965
 20
402.124348
 30
0.0
 10
90.727655
 20
394.610096
 30
0.0
  0
SPLINE
  5
16e
100
AcDbEntity
  8
Layer_1
 62
7
100
AcDbSpline
 70
8
 71
3
 72
8
 73
4
 74
0
 40
0
 40
0
 40
0
 40
0
 40
1
 40
1
 40
1
 40
1
 10
90.727655
 20
394.610096
 30
0.0
 10
90.382590
 20
389.932376
 30
0.0
 10
97.739895
 20
380.134382
 30
0.0
 10
97.739895
 20
380.134382
 30
0.0
  0
SPLINE
  5
16f
100
AcDbEntity
  8
Layer_1
 62
7
100
AcDbSpline
 70
8
 71
3
 72
8
 73
4
 74
0
 40
0
 40
0
 40
0
 40
0
 40
1
 40
1
 40
1
 40
1
 10
97.739895
 20
380.134382
 30
0.0
 10
97.739895
 20
380.134382
 30
0.0
 10
85.714392
 20
381.149000
 30
0.0
 10
80.979826
 20
377.412095
 30
0.0
  0
SPLINE
  5
170
100
AcDbEntity
  8
Layer_1
 62
7
100
AcDbSpline
 70
8
 71
3
 72
8
 73
4
 74
0
 40
0
 40
0
 40
0
 40
0
 40
1
 40
1
 40
1
 40
1
 10
80.979826
 20
377.412095
 30
0.0
 10
73.948660
 20
371.862506
 30
0.0
 10
72.126947
 20
361.381337
 30
0.0
 10
70.876005
 20
352.511685
 30
0.0
  0
SPLINE
  5
171
100
AcDbEntity
  8
Layer_1
 62
7
100
AcDbSpline
 70
8
 71
3
 72
8
 73
4
 74
0
 40
0
 40
0
 40
0
 40
0
 40
1
 40
1
 40
1
 40
1
 10
70.876005
 20
352.511685
 30
0.0
 10
70.435916
 20
346.777720
 30
0.0
 10
70.891161
 20
340.742708
 30
0.0
 10
73.225147
 20
335.579424
 30
0.0
  0
SPLINE
  5
172
100
AcDbEntity
  8
Layer_1
 62
7
100
AcDbSpline
 70
8
 71
3
 72
8
 73
4
 74
0
 40
0
 40
0
 40
0
 40
0
 40
1
 40
1
 40
1
 40
1
 10
73.225147
 20
335.579424
 30
0.0
 10
73.225147
 20
335.579424
 30
0.0
 10
79.579914
 20
340.496920
 30
0.0
 10
83.893412
 20
340.127943
 30
0.0
  0
SPLINE
  5
173
100
AcDbEntity
  8
Layer_1
 62
7
100
AcDbSpline
 70
8
 71
3
 72
8
 73
4
 74
0
 40
0
 40
0
 40
0
 40
0
 40
1
 40
1
 40
1
 40
1
 10
83.893412
 20
340.127943
 30
0.0
 10
86.745423
 20
339.883962
 30
0.0
 10
89.599020
 20
338.283423
 30
0.0
 10
91.500551
 20
336.143868
 30
0.0
  0
SPLINE
  5
174
100
AcDbEntity
  8
Layer_1
 62
7
100
AcDbSpline
 70
8
 71
3
 72
8
 73
4
 74
0
 40
0
 40
0
 40
0
 40
0
 40
1
 40
1
 40
1
 40
1
 10
91.500551
 20
336.143868
 30
0.0
 10
93.861436
 20
333.487508
 30
0.0
 10
95.072398
 20
329.730058
 30
0.0
 10
95.304119
 20
326.183738
 30
0.0
  0
SPLINE
  5
175
100
AcDbEntity
  8
Layer_1
 62
7
100
AcDbSpline
 70
8
 71
3
 72
8
 73
4
 74
0
 40
0
 40
0
 40
0
 40
0
 40
1
 40
1
 40
1
 40
1
 10
95.304119
 20
326.183738
 30
0.0
 10
95.482162
 20
323.458883
 30
0.0
 10
95.053548
 20
320.390450
 30
0.0
 10
93.402337
 20
318.215617
 30
0.0
  0
SPLINE
  5
176
100
AcDbEntity
  8
Layer_1
 62
7
100
AcDbSpline
 70
8
 71
3
 72
8
 73
4
 74
0
 40
0
 40
0
 40
0
 40
0
 40
1
 40
1
 40
1
 40
1
 10
93.402337
 20
318.215617
 30
0.0
 10
81.317595
 20
301.331334
 30
0.0
 10
62.564366
 20
310.085585
 30
0.0
 10
54.207292
 20
324.490405
 30
0.0
  0
SPLINE
  5
177
100
AcDbEntity
  8
Layer_1
 62
7
100
AcDbSpline
 70
8
 71
3
 72
8
 73
4
 74
0
 40
0
 40
0
 40
0
 40
0
 40
1
 40
1
 40
1
 40
1
 10
54.207292
 20
324.490405
 30
0.0
 10
37.724521
 20
367.670348
 30
0.0
 10
72.662142
 20
428.703077
 30
0.0
 10
86.751113
 20
464.289945
 30
0.0
  0
SPLINE
  5
178
100
AcDbEntity
  8
Layer_1
 62
7
100
AcDbSpline
 70
8
 71
3
 72
8
 73
4
 74
0
 40
0
 40
0
 40
0
 40
0
 40
1
 40
1
 40
1
 40
1
 10
86.751113
 20
464.289945
 30
0.0
 10
102.976376
 20
505.381387
 30
0.0
 10
114.335617
 20
539.126388
 30
0.0
 10
119.511852
 20
577.144120
 30
0.0
  0
LWPOLYLINE
  5
179
100
AcDbEntity
  8
Layer_1
 62
7
100
AcDbPolyline
 90
3
 70
0
 10
119.457476
 20
328.519720
 30
0.0
 10
119.434362
 20
379.347688
 30
0.0
 10
119.434362
 20
452.014435
 30
0.0
  0
SPLINE
  5
17a
100
AcDbEntity
  8
Layer_1
 62
7
100
AcDbSpline
 70
8
 71
3
 72
8
 73
4
 74
0
 40
0
 40
0
 40
0
 40
0
 40
1
 40
1
 40
1
 40
1
 10
119.511852
 20
620.008426
 30
0.0
 10
119.511852
 20
628.889960
 30
0.0
 10
114.006069
 20
638.307772
 30
0.0
 10
108.794601
 20
645.904827
 30
0.0
  0
SPLINE
  5
17b
100
AcDbEntity
  8
Layer_1
 62
7
100
AcDbSpline
 70
8
 71
3
 72
8
 73
4
 74
0
 40
0
 40
0
 40
0
 40
0
 40
1
 40
1
 40
1
 40
1
 10
108.794601
 20
645.904827
 30
0.0
 10
102.565305
 20
654.985638
 30
0.0
 10
83.765354
 20
656.809386
 30
0.0
 10
84.071401
 20
667.817181
 30
0.0
  0
SPLINE
  5
17c
100
AcDbEntity
  8
Layer_1
 62
7
100
AcDbSpline
 70
8
 71
3
 72
8
 73
4
 74
0
 40
0
 40
0
 40
0
 40
0
 40
1
 40
1
 40
1
 40
1
 10
84.071401
 20
667.817181
 30
0.0
 10
84.365257
 20
678.386516
 30
0.0
 10
108.942141
 20
687.505229
 30
0.0
 10
108.942141
 20
687.505229
 30
0.0
  0
SPLINE
  5
17d
100
AcDbEntity
  8
Layer_1
 62
7
100
AcDbSpline
 70
8
 71
3
 72
8
 73
4
 74
0
 40
0
 40
0
 40
0
 40
0
 40
1
 40
1
 40
1
 40
1
 10
108.942141
 20
687.505229
 30
0.0
 10
108.942141
 20
687.505229
 30
0.0
 10
102.578067
 20
692.850942
 30
0.0
 10
102.138354
 20
696.701638
 30
0.0
  0
SPLINE
  5
17e
100
AcDbEntity
  8
Layer_1
 62
7
100
AcDbSpline
 70
8
 71
3
 72
8
 73
4
 74
0
 40
0
 40
0
 40
0
 40
0
 40
1
 40
1
 40
1
 40
1
 10
102.138354
 20
696.701638
 30
0.0
 10
101.316717
 20
707.550853
 30
0.0
 10
119.806828
 20
721.205949
 30
0.0
 10
119.434354
 20
736.110698
 30
0.0
  0
LWPOLYLINE
  5
17f
100
AcDbEntity
  8
Layer_1
 62
7
100
AcDbPolyline
 90
2
 70
0
 10
119.511852
 20
577.144120
 30
0.0
 10
119.511852
 20
620.008426
 30
0.0
  0
LWPOLYLINE
  5
180
100
AcDbEntity
  8
Layer_1
 62
7
100
AcDbPolyline
 90
3
 70
0
 10
119.434354
 20
736.110698
 30
0.0
 10
119.434354
 20
819.646359
 30
0.0
 10
119.434354
 20
820.141094
 30
0.0
  0
ENDSEC
  0
SECTION
  2
OBJECTS
  0
DICTIONARY
  5
C
330
0
100
AcDbDictionary
  3
ACAD_GROUP
350
D
  3
ACAD_MLINESTYLE
350
17
  0
DICTIONARY
  5
D
330
C
100
AcDbDictionary
  0
DICTIONARY
  5
1A
330
C
100
AcDbDictionary
  0
DICTIONARY
  5
17
330
C
100
AcDbDictionary
  3
STANDARD
350
18
  0
DICTIONARY
  5
19
330
C
100
AcDbDictionary
  0
ENDSEC
  0
EOF
